<svg width="40" height="40" viewBox="0 0 40 40" fill="none" xmlns="http://www.w3.org/2000/svg">
<path d="M20 10H11.6667V18.3333H20V10Z" fill="black"/>
<path d="M8.33333 10H0V18.3333H8.33333V10Z" fill="black"/>
<path d="M8.33333 18.3333H0V26.6666H8.33333V18.3333Z" fill="black"/>
<path d="M30 20H21.6667V28.3333H30V20Z" fill="black"/>
<path d="M30 31.6667H21.6667V40.0001H30V31.6667Z" fill="black"/>
<path d="M21.6666 31.6667H13.3333V40.0001H21.6666V31.6667Z" fill="black"/>
<path d="M10 8.33333V0C4.46667 0 0 4.46667 0 10H8.33333C8.33333 9.08889 9.08889 8.33333 10 8.33333Z" fill="black"/>
<path d="M20 18.3333H11.6667C11.6667 23.8666 16.1334 28.3333 21.6667 28.3333V19.9999C20.7556 19.9999 20 19.2666 20 18.3333Z" fill="black"/>
<path d="M10 8.33333V0C15.5333 0 20 4.46667 20 10H11.6667C11.6667 9.08889 10.9111 8.33333 10 8.33333Z" fill="black"/>
<path d="M31.6667 30H40C40 24.4667 35.5333 20 30 20V28.3333C30.9111 28.3333 31.6667 29.0889 31.6667 30Z" fill="black"/>
<path d="M31.6667 30H40C40 35.5333 35.5333 40 30 40V31.6667C30.9111 31.6667 31.6667 30.9333 31.6667 30Z" fill="black"/>
<path d="M9 32H0V40H9V32Z" fill="black"/>
</svg>
